<?xml version="1.0" standalone="no"?>
<!DOCTYPE svg PUBLIC "-//W3C//DTD SVG 20010904//EN"
 "http://www.w3.org/TR/2001/REC-SVG-20010904/DTD/svg10.dtd">
<svg version="1.0" xmlns="http://www.w3.org/2000/svg"
 width="225.000000pt" height="225.000000pt" viewBox="0 0 225.000000 225.000000"
 preserveAspectRatio="xMidYMid meet">

<g transform="translate(0.000000,225.000000) scale(0.100000,-0.100000)"
fill="#000000" stroke="none">
<path d="M921 1416 c-40 -14 -77 -28 -82 -33 -5 -5 -11 -41 -15 -81 l-7 -72
282 0 c154 0 281 4 281 9 0 18 -127 140 -174 167 -71 40 -182 44 -285 10z"/>
<path d="M670 1326 c-93 -40 -177 -83 -183 -93 -3 -5 62 -7 144 -5 l149 3 0
65 c0 77 -1 77 -110 30z"/>
<path d="M483 1141 c-151 -69 -143 -297 12 -357 178 -68 338 122 239 283 -53
85 -157 116 -251 74z m130 -55 c105 -45 115 -185 16 -238 -41 -22 -68 -23
-114 -4 -66 28 -96 123 -58 187 16 27 83 69 111 69 7 0 27 -6 45 -14z"/>
<path d="M1535 1141 c-155 -72 -151 -289 7 -356 88 -36 189 -5 239 73 62 98
27 232 -73 281 -54 26 -119 27 -173 2z m152 -67 c55 -36 77 -108 49 -162 -50
-96 -173 -107 -226 -20 -73 121 61 259 177 182z"/>
<path d="M247 1103 c-4 -3 -7 -24 -7 -45 l0 -39 53 3 c49 3 52 4 55 33 3 19
-2 33 -14 42 -19 14 -76 18 -87 6z"/>
</g>
</svg>
